OpenSim_Sub02_CSBaseline_RCS.mot
version=1
nRows=73
nColumns=11
inDegrees=no
endheader
time	Top_Thigh	Med_Thigh	Bot_Thigh	Top_Shank	2nd_Top_Shank	2nd_Bot_Shank	Bot_Shank	BNOx	BNOy	BNOZ
35.28000000	12898.49896886	13660.85764724	13765.16738241	1102.91519593	1203.02746044	994.64089428	974.90300388	85.08404567	-40.22913940	81.69487920
35.29000000	12897.81338677	13662.72834800	13776.65684258	1105.04210131	1203.75908588	995.85658434	975.73417460	85.07637914	-40.53982159	81.31481807
35.30000000	12896.33660082	13665.02827120	13790.31507172	1107.06240361	1204.49011036	996.87555624	976.66808730	84.86118525	-41.02910615	81.02616663
35.31000000	12893.93718502	13667.51665923	13806.27056430	1108.96804217	1205.21823289	997.71495080	977.68409456	84.46239374	-41.68611982	80.82224862
35.32000000	12890.49005219	13669.95554604	13824.64515856	1110.75095638	1205.94115248	998.39190883	978.76154897	83.90393433	-42.49998933	80.69638777
35.33000000	12886.11653640	13672.21548749	13845.30193149	1112.40308558	1206.65656813	998.92357113	979.87980311	83.20973676	-43.45984141	80.64190781
35.34000000	12881.25808157	13674.30801323	13867.76782011	1113.91636915	1207.36217885	999.32707852	981.01820958	82.40373077	-44.55480280	80.65213246
35.35000000	12876.37752513	13676.25407445	13891.54729661	1115.28274644	1208.05568364	999.61957181	982.15612096	81.50984609	-45.77400023	80.72038545
35.36000000	12871.93770450	13678.07462232	13916.14483320	1116.49415683	1208.73478151	999.81819181	983.27288984	80.55201246	-47.10656043	80.83999052
35.37000000	12868.40145709	13679.79060801	13941.06490209	1117.54253967	1209.39717147	999.94007932	984.34786880	79.55415962	-48.54161014	81.00427138
35.38000000	12866.23162034	13681.42298271	13965.81197546	1118.41983432	1210.04055253	1000.00237516	985.36041044	78.54021729	-50.06827609	81.20655177
35.39000000	12865.89103165	13682.99269758	13989.89052553	1119.11798016	1210.66262368	1000.02222014	986.28986733	77.53411522	-51.67568502	81.44015542
35.40000000	12867.84252846	13684.52070380	14012.80502449	1119.62891655	1211.26108394	1000.01675506	987.11559207	76.55978313	-53.35296365	81.69840606
35.41000000	12872.54894817	13686.02795256	14034.05994456	1119.94458284	1211.83363231	1000.00312075	987.81693725	75.64115077	-55.08923872	81.97462741
35.42000000	12880.47312822	13687.53539502	14053.15975793	1120.06220563	1212.37469895	999.99698991	988.37810201	74.65411514	-56.88060221	82.37396067
35.43000000	12892.07790603	13689.06398236	14069.60893680	1120.03359468	1212.84496776	999.99887924	988.83331949	71.94634041	-58.79505242	84.15590755
35.44000000	12907.79926111	13690.63592403	14082.91609885	1119.94000585	1213.18823186	1000.00070595	989.24377440	65.11500575	-60.93620881	89.14737422
35.45000000	12927.02907237	13692.32234479	14092.75101686	1119.82188697	1213.39318079	999.99938495	989.63264072	54.00639798	-63.30649395	97.48418189
35.46000000	12947.80289503	13694.25791212	14098.99280981	1119.68795138	1213.48326354	999.99576741	989.99353799	40.20714167	-65.83000685	107.99357545
35.47000000	12968.06563894	13696.58154017	14101.53458763	1119.54609613	1213.48282325	999.99080574	990.31932551	25.34862894	-68.42883174	119.46913868
35.48000000	12985.76221393	13699.43214307	14100.26946027	1119.40421822	1213.41620304	999.98545234	990.60286260	11.06225190	-71.02505288	130.70445534
35.49000000	12998.83752986	13702.94863499	14095.09053767	1119.27021470	1213.30774605	999.98065964	990.83700855	-1.02059735	-73.54075450	140.49310919
35.50000000	13005.30168590	13707.24176737	14085.89069896	1119.15198259	1213.18179540	999.97738004	991.01462269	-9.26852668	-75.89802085	147.62868401
35.51000000	13004.66413613	13711.77454973	14072.55751516	1119.05741891	1213.06269422	999.97656596	991.12856431	-12.05014398	-78.01893618	150.90476357
35.52000000	12997.93368948	13715.36224965	14054.97324914	1118.99442071	1212.97478566	999.97916979	991.17169271	-7.73405714	-79.82558471	149.11493162
35.53000000	12986.18434426	13716.79197201	14033.01993298	1118.97088500	1212.94241282	999.98614397	991.13686722	5.31112594	-81.24005070	141.05277195
35.54000000	12970.49009874	13714.85082169	14006.57959877	1118.99470881	1212.98991885	999.99844089	991.01694713	28.71679740	-82.18441839	125.51186831
35.55000000	12951.92495123	13708.32590358	13975.53427858	1119.07114318	1213.13378614	1000.01636155	990.80893429	63.50195194	-82.60283908	101.72718779
35.56000000	12931.56290001	13696.00432256	13939.76600449	1119.19112757	1213.34798013	1000.03668354	990.53223668	107.37326203	-82.55881988	71.32104232
35.57000000	12910.47794338	13676.67318351	13899.15680860	1119.34078491	1213.59215736	1000.05499867	990.21380295	156.92265208	-82.15603661	36.71919470
35.58000000	12889.72372395	13649.18766709	13853.60362747	1119.50623453	1213.82596358	1000.06689787	989.88058742	208.74120644	-81.49819534	0.34801314
35.59000000	12869.88570390	13613.96869686	13803.34620109	1119.67359575	1214.00904455	1000.06797204	989.55954444	259.42000946	-80.68900218	-35.36613411
35.60000000	12851.08116493	13573.00293923	13748.96707282	1119.82898789	1214.10104601	1000.05381210	989.27762834	305.55014549	-79.83216318	-67.99687882
35.61000000	12833.40703311	13528.34513640	13691.06369054	1119.95853026	1214.06161372	1000.02000898	989.06179345	343.72269888	-79.03138446	-95.11785274
35.62000000	12816.96023447	13482.05003058	13630.23350212	1120.04911476	1213.85363783	999.96299342	988.93771533	370.71896224	-78.38556500	-114.43655015
35.63000000	12801.83769506	13436.17236397	13567.07395542	1120.09919330	1213.48855433	999.89176266	988.91193543	386.16630713	-77.92167570	-125.66344525
35.64000000	12788.13634092	13392.76687877	13502.18249832	1120.11611671	1213.01516991	999.82498760	988.97626565	391.88302233	-77.61131707	-130.05091012
35.65000000	12775.95309811	13353.88831719	13436.15657869	1120.10746475	1212.48325252	999.78158801	989.12213903	389.74375464	-77.42466528	-128.89097979
35.66000000	12765.38489267	13321.59142143	13369.59364440	1120.08081717	1211.94257015	999.78048365	989.34098859	381.62315082	-77.33189650	-123.47568932
35.67000000	12756.52742972	13297.91288843	13303.09304627	1120.04375371	1211.44289077	999.84059427	989.62424737	369.39585769	-77.30318691	-115.09707376
35.68000000	12749.38195021	13283.49324744	13237.40136780	1120.00385413	1211.03398237	999.98083964	989.96334840	354.93652201	-77.30871269	-105.04716816
35.69000000	12743.78957185	13276.60642652	13173.51476206	1119.96774119	1210.75844602	1000.21700800	990.35028327	339.89681649	-77.32220341	-94.46546326
35.70000000	12739.57590193	13275.29711220	13112.45355677	1119.93686169	1210.62011867	1000.54794998	990.78006473	324.72239629	-77.33660811	-83.66637130
35.71000000	12736.56654775	13277.60999104	13055.23807962	1119.91092041	1210.60979134	1000.96681591	991.24872228	309.45303643	-77.35134411	-72.68662787
35.72000000	12734.58711661	13281.58974957	13002.88865832	1119.88962087	1210.71824525	1001.46675183	991.75228619	294.12820608	-77.36583358	-61.56275928
35.73000000	12733.46321582	13285.28107434	12956.42562058	1119.87266654	1210.93626159	1002.04090377	992.28678674	278.78737441	-77.37949869	-50.33129186
35.74000000	12733.02045267	13286.72865189	12916.86929411	1119.85976092	1211.25462156	1002.68241778	992.84825420	263.47001060	-77.39176161	-39.02875193
35.75000000	12733.08056503	13284.02642087	12885.20479051	1119.85060752	1211.66410638	1003.38443989	993.43271883	248.21558380	-77.40204454	-27.69166580
35.76000000	12733.37629347	13276.40111849	12861.60725127	1119.84490981	1212.15549723	1004.14011614	994.03621090	233.06356318	-77.40976962	-16.35655981
35.77000000	12733.55138131	13264.21228052	12845.44184774	1119.84237129	1212.71957533	1004.94259257	994.65476070	218.05341792	-77.41435906	-5.05996028
35.78000000	12733.24570243	13247.86869484	12836.03853517	1119.84269546	1213.34712187	1005.78501522	995.28439848	203.22461718	-77.41523501	6.16160648
35.79000000	12732.09913069	13227.77914931	12832.72726882	1119.84558581	1214.02891806	1006.66053012	995.92115452	188.61663013	-77.41181965	17.27161415
35.80000000	12729.75153997	13204.35243182	12834.83800395	1119.85074584	1214.75574510	1007.56228332	996.56105910	174.26892594	-77.40353516	28.23353639
35.81000000	12725.84280413	13177.99733024	12841.70069580	1119.85787903	1215.51838419	1008.48342085	997.20014247	160.22097378	-77.38980371	39.01084689
35.82000000	12720.01279706	13149.12263245	12852.64529965	1119.86668888	1216.30761653	1009.41708874	997.83443491	146.51224281	-77.37004748	49.56701933
35.83000000	12711.90139261	13118.13712632	12867.00177074	1119.87687889	1217.11422334	1010.35643305	998.45996670	133.18220221	-77.34368864	59.86552738
35.84000000	12701.14846466	13085.44959973	12884.10006433	1119.88815255	1217.92898580	1011.29459981	999.07276810	120.27032114	-77.31014937	69.86984473
35.85000000	12687.39388708	13051.46884055	12903.27013568	1119.90021334	1218.74268512	1012.22473504	999.66886938	107.81606878	-77.26885184	79.54344505
35.86000000	12670.27753374	13016.60363667	12923.84194004	1119.91276477	1219.54610251	1013.13998480	1000.24430082	95.85891428	-77.21921823	88.84980201
35.87000000	12649.43927851	12981.26277595	12945.14543267	1119.92551033	1220.33001916	1014.03349512	1000.79509268	84.43832682	-77.16067071	97.75238930
35.88000000	12624.54411237	12945.86745340	12966.50677390	1119.93815351	1221.08521628	1014.89841204	1001.31727524	73.59377556	-77.09263146	106.21468060
35.89000000	12596.23345352	12911.32119095	12987.10459663	1119.95039780	1221.80247507	1015.72788160	1001.80687876	63.36472968	-77.01452264	114.20014958
35.90000000	12566.41713371	12879.15407027	13005.92589034	1119.96194670	1222.47257673	1016.51504983	1002.25993352	53.79065835	-76.92576645	121.67226993
35.91000000	12537.08975489	12850.93804708	13021.94483670	1119.97250371	1223.08630247	1017.25306278	1002.67246979	44.91103072	-76.82578504	128.59451531
35.92000000	12510.24591902	12828.24507709	13034.13561735	1119.98177230	1223.63443348	1017.93506648	1003.04051784	36.76531598	-76.71400061	134.93035941
35.93000000	12487.88022804	12812.64711603	13041.47241395	1119.98945599	1224.10775097	1018.55420697	1003.36010794	29.39298328	-76.58983531	140.64327591
35.94000000	12471.91862941	12805.64364071	13042.97096962	1119.99525826	1224.49703615	1019.10363028	1003.62727036	22.83350180	-76.45271133	145.69673848
35.95000000	12462.70801697	12807.06711358	13038.60294117	1119.99888260	1224.79307021	1019.57648246	1003.83803537	17.12634071	-76.30205084	150.05422080
35.96000000	12459.01623095	12815.08298268	13029.29589915	1120.00003252	1224.98663435	1019.96590955	1003.98843324	12.31096917	-76.13727602	153.67919655
35.97000000	12459.54245710	12827.78421717	13016.01897555	1119.99849863	1225.07098964	1020.26640575	1004.07567857	8.41414416	-75.95795080	156.54614525
35.98000000	12462.98588116	12843.26378620	12999.74130238	1119.99454285	1225.05281009	1020.47975724	1004.10339168	5.39386525	-75.76440588	158.68907457
35.99000000	12468.04568885	12859.61465893	12981.43201163	1119.98858571	1224.94328379	1020.61020429	1004.07734874	3.18499197	-75.55723003	160.16202615
36	12473.42106591	12874.92980451	12962.06023530	1119.98104786	1224.75360224	1020.66198899	1004.00332753	1.72236643	-75.33701219	161.01905670
